<svg xmlns="http://www.w3.org/2000/svg" viewBox="0 0 32 32" width="32" height="32">
  <defs>
    <linearGradient id="bg" x1="0%" y1="0%" x2="100%" y2="100%">
      <stop offset="0%" style="stop-color:#22c55e"/>
      <stop offset="100%" style="stop-color:#16a34a"/>
    </linearGradient>
  </defs>
  <rect width="32" height="32" rx="8" fill="url(#bg)"/>
  <g transform="translate(16, 10)" stroke="white" stroke-width="1.8" stroke-linecap="round" fill="none">
    <line x1="-10" y1="0" x2="10" y2="0" stroke-width="2"/>
    <rect x="-14" y="-5" width="4" height="10" rx="1" fill="white" stroke="none"/>
    <rect x="-18" y="-6" width="3" height="12" rx="1" fill="white" stroke="none"/>
    <rect x="10" y="-5" width="4" height="10" rx="1" fill="white" stroke="none"/>
    <rect x="15" y="-6" width="3" height="12" rx="1" fill="white" stroke="none"/>
  </g>
  <path d="M11,19 C10,20 9,21.5 10,23 C11,24 13,24 14,23.5 C14.5,24 14.5,24 15,23.5 C16,24 18,24 19,23 C20,21.5 19,20 18,19" fill="white"/>
  <path d="M14.5,19 C14.5,18 14,17.5 15,16" stroke="white" stroke-width="1" fill="none" stroke-linecap="round"/>
  <path d="M13.5,17 C14.5,16 15,15.5 14.5,14.5" stroke="white" stroke-width="0.6" fill="none"/>
</svg>
